<?xml version="1.0" encoding="utf-8"?>
<!-- Generator: Adobe Illustrator 18.0.0, SVG Export Plug-In . SVG Version: 6.00 Build 0)  -->
<!DOCTYPE svg PUBLIC "-//W3C//DTD SVG 1.1//EN" "http://www.w3.org/Graphics/SVG/1.1/DTD/svg11.dtd">
<svg version="1.1" id="Слой_1" xmlns="http://www.w3.org/2000/svg" xmlns:xlink="http://www.w3.org/1999/xlink" x="0px" y="0px"
	 viewBox="0.4 -52 768 820" enable-background="new 0.4 -52 768 820" xml:space="preserve">
<path fill="#FF1493"      d="
	M740,690.7c0,0-37.6,11.8-64.3,0.6l-4.2-0.1c0,0-8.4-14.9-16.3-14.9c0,0-24.5-54.7-28.9-75.3c0,0-16.2-57.3-24.1-64.8
	c0,0,0-17.1-3.1-21.9c0,0,5.2-28.5-14.5-39.8c0,0-19.3-16.6-25.9-24.9c0,0-78-79.7-100.3-86.2c0,0,2.5-8.3-0.2-14
	c0,0,9.9-31.3,11.1-45.1v-3.6c0,0,11.7,2,16.9-1.1c0,0,36.4-1,74.9-23.5c0,0,16.5-11.5,27.8-6.4c0,0,21.2,5.1,31.4,2.3
	c0,0,7.5,2,10.6,0.8c0,0,24.6,6.6,27,8.2c2.3,1.6,9.8-3.1-1.2-8.2l-21.9-9.4c0,0,29.7,2.3,36.3,2c0,0,6.3-2.1,0-6.9
	c0,0,5.1-2.1,0.8-7.2l-27.7-5.1c0,0-2.3-4.3-0.8-4.7c1.6-0.4,9.7-3.5,9.7-3.5s15.2-0.8,16.8-5.1c0,0,3.1-3.5-8.6-2.3l-8.2-0.2
	l-14.8,3.7c0,0-13.3,2.3-14.8,0.4c0,0,7.8-14.1,2-21.1c0,0-5.1-4.7-5.5,5.5c0,0-3.1,12.5-15.6,14.8c0,0-10.9,3.9-14.1,5.9
	c0,0-34.8,8.6-42.2,10.9c0,0-40.2,5.9-50.4-0.4c0,0-2.8-49.6-12.1-65.2c0,0-0.1-13.7,2.3-20.7c0,0,6.3-50-22.3-54.3
	c0,0-3.6-4.3-7.2-5.9v-11c0,0,25.8,8.2,31.6-3.2l2-3.2c0-2.6,4.2-4.8,4.2-4.8c6.4-1,2.4-7.7,2.4-7.7c4.8-2.9,1-8,1-8
	c-2.3-4.8,1.2-5.9,1.2-5.9c7.4-5.9-3.1-11.7-3.1-11.7c-3.5-3.1-3.9-9.4-3.9-9.4c2.3-2.7,1.6-5.9,1.6-5.9C501.2,15,488,0.9,488,0.9
	C461.8-32.3,413-18.5,413-18.5c-0.2,0.1-0.3,0.1-0.5,0.2c-0.2-7.8-2.9-19.1-17.2-22c0,0-33.4-2.1-34.7,14.9c0,0-30.6-12.8-28.5,19.4
	c0,0-9.7,13.6-0.1,22.7c0,0,10.4,27.3,26.9,16.1c0,0-5.8,8.7,8.7,11.6c0,0,17.8,0.8,12-19c0,0,2.9,1.2,7,1.8
	c-0.9,14.9,1.7,27.4,1.7,27.4c4.9,11.8,14.9,17.1,14.9,17.1c1.2,3.3,0,8.3,0,8.3l-34.4,2.8c0,0-28.9,1.2-37.5,24.2
	c0,0-4.9,7.4-19.1,10.5c0,0-22.3,7-52.3,28.5c0,0-21.1,14.1-24.6,24.6c0,0-7,6.6,0,18c0,0,23,51.2,53.1,81.6c0,0,18,19.1,17.6,26.2
	c0,0-7,15.2-5.1,20.7c0,0-14.5,10.5-14.8,12.1L272,343.5c0,0-0.8,6.3,5.9,1.2l11.3-8.2c0,0,6.6-5.1,9.8-4.3c0,0-13.3,13.7-18.4,18.4
	c0,0-7,5.1,3.5,4.3c0,0-2.3,4.7,7.8,2.3c0,0,21.5-14.1,23.8-20.7c0,0,9.8-3.9,7,4.3c0,0-9,17.2,2.3,9c0,0,7.8-12.9,7.8-17.6
	c0,0,2.7-16.4,13.7-14.1l-0.6,3.7c0,0-31.6,33.7-22.4,70c0,0,6.5,24.5,14.4,28c0,0-0.4,18.4-4.1,26.3c0,0-30,62.6-24.3,92.8
	c0,0-2.6,21-11.4,20.6c0,0-45.5-23.6-77.9-20.6c0,0-73.1-6.6-82.7-14.9c0,0-7.9-10.5-17.1-9.2c0,0-10.5-18.8-22.3-21.9
	c0,0-3.1-9.6-15.3-0.4c0,0-35.5,37.6-48.6,46.4c0,0-23.6,17.1-34.1,61.3c0,0,7.8,10.1,23.1-3.9c0,0,36.5-31.5,65.3-29.8l3.9-1.3
	c0,0,31.1,3.1,32.4-2.2c0,0,34.1,4.4,70.4,20.8c0,0,49.2,20.6,78.5,28.1c0,0,49.5,19.8,62.6,12.4c4.3-2.5,19.3-17.9,19.3-17.9
	c27.6-25.4,70.9-141.4,70.9-141.4s17.8,21.5,81.3,41.6c0,0,37.2,10.1,39.4,33.3c0,0,2.1,47.3,41.5,95.4c0,0,29.4,43.8,32.1,61.3
	c0,0-5.6,17.9,5.1,28.5v4.6c0,0,5.1,21.2,15.2,28c0,0,0.5,10.1,15.1,5.5c0,0,46.1-23.9,61.4-27.8c0,0,20.9-2.4,45.4-40.6
	C763,694.6,759.1,682.5,740,690.7z M369.2,285.7c0.8,6.6-6.2,18.4-6.2,18.4c-3.5-0.4-7.8,7-7.8,7c-0.8-5.9-14.5-20.7-14.5-20.7
	l-9-10.2c-14.8-12.1-32.8-50.4-32.8-50.4c-3.5-8.2-15.2-48-15.2-48c1.6-2.3,11.3-5.9,11.3-5.9c9-0.8,43-17.6,43-17.6
	s14.1-9,12.9-3.5c-3,14,4.7,38.7,4.7,38.7c7.8,13.3,12.1,73,12.1,73c-2.3,1.6,1.6,11.3,1.6,11.3
	C365.8,280.6,369.2,285.7,369.2,285.7z"/>
</svg>
