<?xml version="1.0" encoding="utf-8"?>
<!-- Designed by Vexels.com - 2016 All Rights Reserved - https://vexels.com/terms-and-conditions/  -->

<svg version="1.1" id="Layer_1" xmlns="http://www.w3.org/2000/svg" xmlns:xlink="http://www.w3.org/1999/xlink" x="0px" y="0px"
	 width="1200px" height="1200px" viewBox="0 0 1200 1200" enable-background="new 0 0 1200 1200" xml:space="preserve">
<g>
	<g>
		<path fill="#333333" d="M88.934,1109.145c24.489-8.641,58.351-27.371,66.997-38.18c8.646-10.807,12.607-32.061,7.562-50.427
			c-5.044-18.375-30.977-97.613-38.543-121.031c-7.563-23.412-27.017-88.604-30.614-118.144
			c-3.604-29.538,2.877-63.039,44.661-88.97c-9.365-10.804-12.963-18.729-13.325-34.222c-0.363-15.49,3.604-51.145,0.358-75.28
			c-3.241-24.132-5.396-79.607-6.117-93.651c-0.723-14.05,11.523-40.706,17.649-57.272s29.184-72.751,38.543-100.137
			c9.361-27.375,12.967-60.153,16.565-74.2c1.125-4.384,2.919-8.056,5.259-11.166c-13.047,4.132-25.061,10.904-35.154,21.976
			c21.972-27.74,42.054-42.157,62.856-41.785c11.11,0.201,19.724-5.969,25.892-13.752c-6.396,2.054-13.994,3.504-23.555,4.744
			c-33.14,4.324-60.149,6.841-73.118,22.691c6.847-13.686,15.845-28.454,42.501-40.339c26.657-11.886,23.775-18.737,39.626-36.025
			c-12.247,11.886-26.657,14.413-37.82,15.849c27.735-8.638,34.938-30.617,46.103-53.67c6.131-12.667,16.166-20.417,23.979-24.847
			c1.942-10.279,5.061-19.041,9.883-24.86c10.44-12.601,35.658-21.975,52.227-20.53c16.565,1.44,51.505,9.004,50.066,76.723
			c5.043,1.086,7.207,10.446,5.767,22.337c-1.445,11.885-9.368,23.771-9.368,23.771s-6.479,24.854-19.088,36.381v8.285
			c0,0,34.939,14.053,61.594,26.656c26.65,12.609,52.229,33.134,55.472,50.07c3.242,16.93-0.722,33.861,4.683,54.751
			c5.025,19.436,6,73.473,8.142,109.625c-0.008,3.479-0.023,6.951-0.023,10.457c-0.028,10.366-0.391,20.722-0.556,30.436
			c-0.105,4.858-0.424,9.541-0.616,13.995c-0.221,4.441-0.42,8.646-0.613,12.529c-0.153,3.89-0.631,7.423-0.884,10.568
			c-0.29,3.146-0.549,5.887-0.755,8.146c-0.422,4.515-0.663,7.1-0.663,7.1s0.308-2.574,0.845-7.077
			c0.27-2.249,0.595-4.991,0.971-8.126c0.333-3.144,0.9-6.676,1.157-10.553c0.291-3.88,0.605-8.085,0.941-12.53
			c0.304-4.447,0.751-9.136,0.983-13.992c0.416-9.717,1.05-20.077,1.347-30.444c0.015-0.486,0.03-0.971,0.041-1.452
			c22.982,16.296,41.464,42.009,52.716,58.178c11.526,16.567,22.689,35.657,51.509,53.308
			c28.816,17.648,65.194,46.457,90.771,77.439c25.579,30.979,48.986,72.4,67.356,91.491c18.372,19.095,80.688,83.567,94.733,94.014
			c14.05,10.447,47.903,50.427,68.438,76.362c20.527,25.936,70.599,83.561,94.372,100.132
			c23.773,16.578,68.073,48.988,87.892,54.031c19.813,5.041,48.624,9.723,50.788,22.691c2.161,12.965-0.357,17.646-20.893,19.447
			c-20.53,1.807-57.992,4.684-77.803,0c-19.809-4.678-36.738-10.449-50.787-8.641c-14.048,1.799-34.581,2.881-41.063,0.723
			c-10.086-30.979,2.523-60.15-3.602-70.596c-21.976-20.896-75.646-55.835-99.777-75.281
			c-24.133-19.454-55.834-52.228-79.967-80.683c-24.131-28.464-77.439-61.965-92.565-72.045
			c-15.132-10.09-68.438-68.433-103.014-86.448c-34.579-18.011-100.858-40.341-119.589-33.141
			c-18.731,7.204-63.397,28.82-112.381,42.509c-48.986,13.683-121.021,18.726-136.151,25.215
			c-15.127,6.48-27.377,21.606-27.377,21.606s11.523,27.374,17.29,62.675c5.769,35.304,4.325,119.584,10.087,152.727
			c5.766,33.14,11.88,52.954,18.001,60.872c6.123,7.93,17.291,32.055,10.806,65.553c-36.74,6.486-61.596-1.797-77.804,3.963
			c-16.21,5.766-27.735,13.326-61.595,14.408c-33.856,1.08-47.545-3.961-50.79-9.361
			C47.147,1129.32,64.444,1117.791,88.934,1109.145z M281.004,210.443c-4.366,9.782-10.762,20.31-19.466,25.889
			c8.409,0.22,15.634,0.115,19.351-0.938c0.417,6.156,0.674,14.005,0.115,21.692C286.303,223.318,281.004,210.443,281.004,210.443z
			 M183.669,656.735c32.053-12.966,66.637-32.242,66.637-32.242s5.403-15.127,19.45-19.99c14.047-4.858,32.418-7.376,41.603-4.5
			c9.188,2.876,9.188,2.876,9.188,2.876l12.426-2.876l0.134-0.18l0.552,0.466c0,0,0.681-0.899,1.897-2.287
			c1.163-1.433,3.077-3.393,5.296-5.776c2.375-2.238,4.988-5.051,8.134-7.693c3.071-2.722,6.379-5.592,9.903-8.217
			c1.741-1.341,3.475-2.69,5.183-4.01c1.786-1.223,3.543-2.427,5.243-3.593c1.709-1.16,3.354-2.29,4.909-3.356
			c1.555-1.084,3.146-1.905,4.553-2.779c5.69-3.371,9.483-5.625,9.483-5.625s-3.931,2.019-9.817,5.038
			c-1.463,0.786-3.113,1.516-4.733,2.51c-1.632,0.972-3.353,1.998-5.132,3.067c-1.778,1.063-3.625,2.164-5.496,3.283
			c-1.801,1.226-3.634,2.474-5.466,3.714c-3.722,2.429-7.247,5.131-10.529,7.702c-1.571,1.166-3.006,2.372-4.374,3.547
			c0.003-5.047-0.348-23.269-5.416-38.278c-5.943-17.599-19.99-52.719-35.12-67.305c-29.717-5.403-50.249-11.35-57.27-29.176
			c-7.026-17.83,3.777-52.412,3.777-69.157c0-16.752-3.062-40.341-3.062-40.341s-9.362,5.399-17.647,24.494
			c-8.288,19.088-27.016,51.144-36.38,65.914c-9.368,14.771-20.175,32.06-21.254,53.669c-1.081,21.614-2.161,57.271-5.403,89.33
			c-3.242,32.06-3.235,56.187-2.879,63.397C162.416,645.57,173.582,654.933,183.669,656.735z"/>
	</g>
</g>
</svg>
