<?xml version="1.0" encoding="utf-8"?>
<!-- Designed by Vexels.com - 2016 All Rights Reserved - https://vexels.com/terms-and-conditions/  -->

<svg version="1.1" id="Layer_1" xmlns="http://www.w3.org/2000/svg" xmlns:xlink="http://www.w3.org/1999/xlink" x="0px" y="0px"
	 width="1200px" height="1200px" viewBox="0 0 1200 1200" enable-background="new 0 0 1200 1200" xml:space="preserve">
<g>
	<g>
		<path fill="#333333" d="M250.315,1049.035c12.715-19.068,34.956-32.736,48.303-35.278c13.347-2.538,30.828-29.237,42.59-45.453
			c11.762-16.204,34-67.688,49.891-86.437c15.894-18.747,54.664-46.398,69.917-56.252c15.255-9.852,20.021-72.137,25.107-103.918
			c5.09-31.78,17.159-76.907,17.159-76.907s-10.175-25.425-6.357-61.018c3.812-35.592,36.866-57.844,53.388-69.913
			c16.529-12.076,38.137-74.688,38.458-96.299c0.271-18.284-0.596-61.837-0.868-74.79c1.122-0.637,2.329-1.317,3.655-2.062
			c1.634-0.93,3.226-2.192,5.007-3.381c1.759-1.227,3.603-2.516,5.526-3.852c1.961-1.271,3.729-2.924,5.671-4.411
			c1.896-1.533,3.828-3.089,5.761-4.648c1.852-1.648,3.695-3.299,5.524-4.918c1.791-1.655,3.639-3.182,5.27-4.839
			c3.313-3.252,6.465-6.215,8.99-8.938c5.185-5.305,8.38-9.084,8.38-9.084s-3.372,3.619-8.798,8.66
			c-2.647,2.586-5.94,5.396-9.386,8.467c-1.696,1.57-3.61,3-5.476,4.554c-1.883,1.523-3.797,3.071-5.711,4.617
			c-1.979,1.456-3.972,2.9-5.931,4.33c-1.982,1.376-3.807,2.922-5.804,4.081c-1.943,1.22-3.82,2.398-5.609,3.517
			c-1.803,1.088-3.426,2.252-5.054,3.075c-1.203,0.604-2.305,1.156-3.349,1.681c-7.359,3.279-45.474,20.315-54.305,25.184
			c-9.794,5.404-32.162,18.752-31.843,24.155c0.313,5.401-2.546,23.514-6.672,37.182c-4.134,13.666-19.068,54.343-22.882,73.409
			c-3.813,19.073-6.673,40.524-7.471,46.717c-0.792,6.198-6.042,24.15-6.83,29.396c-0.799,5.245-1.752,15.572-3.659,18.432
			c-1.906,2.86-7.47,4.769-10.642,5.72c-3.182,0.952-6.36,4.927-7.948,6.197c-1.584,1.272-4.767,0.479-8.734-2.543
			c-3.972-3.014-15.102-12.068-17.328-17.476c-2.218-5.401,0.318-14.614,4.136-17.478c3.814-2.865,19.7-22.57,24.468-27.65
			c4.767-5.085,3.5-26.061,4.136-54.661c0.63-28.601,1.905-80.718,11.441-126.484c9.533-10.806,137.92-108.685,165.891-128.393
			c27.971-19.701,38.77-14.612,38.77-14.612c9.22-13.668,13.189-28.054,13.666-41.161c0.478-13.112-13.104-12.395-18.591-21.929
			c-5.481-9.533-2.382-23.834-2.382-23.834s-5.133,1.188-9.186,0c-0.238,11.679-14.025,28.621-33.092,46.021
			c-17.73,16.173-49.16,20.792-78.389,21.558c15.044-1.682,31.247-12.712,40.578-26.825c0.247-0.367,0.455-0.751,0.688-1.13
			c-17.979,4.26-37.398,5.997-57.256,21.234c25.877-22.293,45.077-34.093,64.826-40.771c2.913-11.493,5.192-24.404,13.436-39.159
			c13.587-24.31,33.847-41.474,47.431-40.52c13.587,0.954,14.778,10.727,14.778,10.727s8.579-10.008,21.452-21.448
			c12.871-11.442,45.763-11.206,63.638-6.2c17.875,5.005,37.657,25.264,40.521,34.798c2.86,9.533,3.814,34.325,2.384,43.381
			c-2.861,2.621-5.246,7.15-2.146,11.68c3.101,4.525,9.058,10.964,12.87,15.016c3.813,4.053-1.429,8.82-6.911,10.008
			c-0.478,3.336,0.476,7.866,0.476,10.25c0,2.382-3.575,5.007-3.575,5.007s1.666,3.093-0.954,6.435
			c-2.623,3.336-2.858,8.104-3.101,12.391c-0.238,4.292-6.197,10.25-12.867,10.965c-6.674,0.713-21.85-3.177-21.85-3.177
			s-15.255,10.807-22.248,22.566c-6.996,11.762-7.948,30.831-4.447,42.902c3.494,12.074,27.646,50.53,38.45,71.503
			c10.808,20.979,28.604,53.396,30.831,74.687c9.854-20.02,42.576-35.273,58.155-41.316c15.573-6.039,40.042-26.062,47.665-35.272
			c7.625-9.217-6.354-31.146-6.674-40.681c-0.321-9.531,6.041-11.758,11.44-12.71c5.398-0.958,15.553-13.126,20.729-16.026
			c10.548-5.902,14.593,10.786,22.939,20.161c6.509,7.304,9.72,7.304,9.72,22.556c0,15.26-20.973,39.094-29.233,46.719
			c-8.262,7.629-34.641,32.1-49.577,43.854c-14.936,11.765-60.065,51.803-76.908,64.833c-16.839,13.031-27.646,3.813-37.816-4.451
			c-7.41-6.021-13.954-20.279-16.973-27.582c1.146-0.538,2.479-1.28,4.005-2.12c1.493-1.022,3.231-2.104,4.857-3.654
			c1.675-1.466,3.31-3.303,4.725-5.428c1.458-2.097,2.597-4.55,3.544-7.142c0.807-2.635,1.506-5.392,1.721-8.243
			c0.328-2.839,0.29-5.732,0.11-8.601c-0.433-5.721-1.608-11.33-3.114-16.438c-1.514-5.112-3.298-9.741-4.976-13.648
			c-3.375-7.798-6.294-12.653-6.294-12.653s2.707,4.986,5.74,12.879c2.988,7.867,6.39,18.797,6.733,29.956
			c0.053,2.778-0.03,5.559-0.448,8.229c-0.316,2.691-1.086,5.236-1.929,7.627c-0.974,2.34-2.091,4.521-3.491,6.352
			c-1.356,1.854-2.874,3.433-4.434,4.68c-5.035,4.801-19.018,4.965-25.689,8.137c-6.672,3.176-18.114,17.479-32.736,31.148
			c-14.38,13.444-26.912,68.085-33.064,103.442c-9.546-1.709-18.82-4.52-25.663-7.082c-7.077-2.62-11.586-4.919-11.586-4.919
			s4.381,2.521,11.342,5.507c6.951,3.011,16.518,6.438,26.438,8.653c0.901,0.201,1.801,0.339,2.702,0.525
			c42.405,11.994,127.938,65.23,157.906,89.634c30.819,25.104,50.842,68.646,50.209,89.62
			c-0.634,20.978-40.676,34.005-67.367,46.717c-26.695,12.713-64.832,38.452-94.075,58.473
			c-29.234,20.026-57.834,43.86-63.877,57.851c-6.032,13.976-0.951,57.835,6.676,76.271c7.628,18.433,13.822,24.148,8.427,31.776
			c-5.403,7.627-14.594,5.566-30.191-5.88c-14.939-10.958-22.084-40.845-24.631-51.964c-2.542-11.121-11.763-23.993-27.018-33.055
			c-14.106-8.375-17.794-15.887-18.426-23.519c-0.732-8.688,6.672-16.518,19.065-26.37c12.396-9.854,30.189-12.396,37.817-14.301
			c7.627-1.909,34.322-28.602,51.164-43.539c16.847-14.94,41.637-46.081,53.71-59.11c12.084-13.033,41.63-24.476,42.902-29.875
			c1.273-5.396-13.67-10.167-37.504-13.668c-22.156-3.253-66.553-19.685-104.611-35.765c-1.587-0.77-3.144-1.522-4.82-2.326
			c-2.571-1.24-5.228-2.52-7.923-3.814c-2.683-1.348-5.306-2.884-7.985-4.322c-2.669-1.479-5.326-2.953-7.956-4.409
			c-2.548-1.573-5.059-3.13-7.482-4.631c-2.446-1.479-4.783-2.958-6.913-4.485c-2.16-1.477-4.2-2.887-6.085-4.182
			c-3.635-2.766-6.734-5.005-8.752-6.756c-2.076-1.676-3.196-2.721-3.196-2.721s1.072,1.085,3.085,2.851
			c1.958,1.829,4.958,4.185,8.505,7.103c1.839,1.371,3.831,2.864,5.936,4.434c2.081,1.618,4.367,3.189,6.756,4.767
			c2.384,1.6,4.839,3.268,7.337,4.948c2.577,1.562,5.198,3.148,7.812,4.732c2.638,1.563,5.229,3.209,7.866,4.664
			c1.616,0.86,3.166,1.682,4.729,2.52c-13.771,49.407-72.685,162.473-83.967,175.644c-11.441,13.352-46.083,30.191-61.017,42.901
			c-14.944,12.717-46.084,43.854-71.505,72.139c-25.43,28.284-50.53,61.654-55.298,75.004c-4.769,13.352,0.312,44.811,5.081,54.021
			c4.767,9.221,28.925,15.896,36.552,22.883c7.626,7,3.491,15.896-5.398,16.531c-8.901,0.633-36.551,0-54.667-2.543
			c-18.112-2.537-29.233-27.334-31.459-43.223c-2.219-15.885-13.346-21.928-22.88-28.279
			C255.081,1069.375,248.087,1052.205,250.315,1049.035z"/>
	</g>
</g>
</svg>
